<svg style="position:absolute;width:0;height:0;overflow:hidden" xmlns="http://www.w3.org/2000/svg" xmlns:xlink="http://www.w3.org/1999/xlink"><symbol viewBox="0 0 32 32" id="icon-code"><path d="M23.688 7.313l7.25 8.688-7.25 8.688-2.063-1.688 5.813-7-5.813-7zm-9 10v-2.625h2.625v2.625h-2.625zm8-2.625v2.625H20v-2.625h2.688zM9.313 17.313v-2.625h2.688v2.625H9.313zM10.375 9l-5.813 7 5.813 7-2.063 1.688L1.062 16l7.25-8.688z"/></symbol><symbol viewBox="0 0 32 32" id="icon-link"><path d="M25.333 25.333H6.666V6.666h9.333V3.999H6.666c-1.48 0-2.667 1.2-2.667 2.667v18.667A2.666 2.666 0 0 0 6.666 28h18.667C26.8 28 28 26.8 28 25.333V16h-2.667v9.333zM18.667 4v2.667h4.787L10.347 19.774l1.88 1.88L25.334 8.547v4.787h2.667V4.001h-9.333z"/></symbol><symbol viewBox="0 0 32 32" id="icon-timer"><path d="M16.688 9.313v7l6 3.563-1 1.688-7-4.25v-8h2zM16 26.688c5.875 0 10.688-4.813 10.688-10.688S21.875 5.312 16 5.312 5.312 10.125 5.312 16 10.125 26.688 16 26.688zm0-24c7.375 0 13.313 5.938 13.313 13.313S23.375 29.314 16 29.314 2.687 23.376 2.687 16.001 8.625 2.688 16 2.688z"/></symbol></svg>