<svg xmlns="http://www.w3.org/2000/svg" width="120" height="120" viewBox="0 0 120 120"><path fill="#aa58ee" fill-rule="evenodd" d="M115 120H90v-5h25V90h5v30h-5zm0-115H90V0h30v30h-5V5zM0 120V90h5v25h25v5H0zm5-90H0V0h30v5H5v25z"/><path fill="#a958ee" fill-rule="evenodd" d="M43.84 78.333v-35.86l-5.86 1.407v10.055a11.472 11.472 0 0 0-5.2-1.172 11.293 11.293 0 0 0-8.66 3.738 13.69 13.69 0 0 0-3.46 9.694q0 5.953 3.01 9.28a10.58 10.58 0 0 0 8.26 3.33 10.932 10.932 0 0 0 3.59-.6 6.017 6.017 0 0 0 2.46-1.395v1.522h5.86zm-5.86-6a3.81 3.81 0 0 1-1.61 1.02 5.683 5.683 0 0 1-2.07.5q-7.545 0-7.55-7.828a9.023 9.023 0 0 1 1.9-6.153 6.862 6.862 0 0 1 5.42-2.144 6.2 6.2 0 0 1 3.91 1.5v13.1zM51.89 44.5a3.386 3.386 0 0 0 0 4.806 3.4 3.4 0 1 0 0-4.806zm5.31 33.833v-25.1h-9.14v4.8h3.21v20.3h5.93zm30.04 0L76.72 65.49l9.63-12.258h-6.68l-5.9 7.664-5.3-7.664h-6.73L70.6 65.49l-9.63 12.843h6.94l5.79-8.18 6.44 8.18h7.1zM92.72 44.5a3.39 3.39 0 1 0 2.4-1 3.257 3.257 0 0 0-2.4 1zm5.31 33.833v-25.1h-9.14v4.8h3.21v20.3h5.93z"/></svg>